<svg version="1.0" xmlns="http://www.w3.org/2000/svg"
 width="83.000000pt" height="90.000000pt" viewBox="0 0 83.000000 76.000000"
 preserveAspectRatio="xMidYMid meet">

<g transform="translate(0.000000,76.000000) scale(0.100000,-0.100000)"
fill="#000000" stroke="none">
<path d="M0 525 c0 -53 10 -82 102 -288 92 -205 118 -251 134 -235 5 6 104
319 104 331 0 5 -5 7 -12 5 -7 -3 -28 -54 -48 -114 -22 -68 -40 -109 -49 -109
-8 0 -55 92 -116 228 -57 126 -106 231 -109 234 -3 4 -6 -20 -6 -52z"/>
<path d="M397 333 c-4 -3 -7 -80 -7 -170 l0 -163 90 0 c72 0 90 3 90 15 0 11
-16 15 -67 17 l-68 3 0 60 0 60 68 3 c51 2 67 6 67 17 0 12 -15 15 -70 15
l-70 0 0 55 0 55 58 0 c61 0 89 11 78 29 -8 12 -158 16 -169 4z"/>
<path d="M715 328 c-13 -36 -95 -312 -95 -320 0 -6 5 -8 12 -6 7 3 28 53 48
113 19 60 40 110 46 112 6 2 32 -43 57 -99 l47 -103 0 66 c0 56 -6 81 -39 155
-37 83 -65 113 -76 82z"/>
</g>
</svg>
